<?xml version="1.0" standalone="no"?><!DOCTYPE svg PUBLIC "-//W3C//DTD SVG 1.1//EN" "http://www.w3.org/Graphics/SVG/1.1/DTD/svg11.dtd"><svg t="1523260742570" class="icon" style="" viewBox="0 0 1024 1024" version="1.1" xmlns="http://www.w3.org/2000/svg" p-id="1894" xmlns:xlink="http://www.w3.org/1999/xlink" width="200" height="200"><defs><style type="text/css"></style></defs><path d="M892.928 151.552c-4.096-8.192-12.288-12.288-20.48-12.288L147.456 139.264c-8.192 0-16.384 4.096-20.48 12.288-4.096 8.192 0 16.384 4.096 20.48L405.504 450.56c4.096 4.096 4.096 8.192 4.096 12.288l0 339.968c0 8.192 4.096 12.288 8.192 16.384l65.536 49.152c8.192 8.192 20.48 4.096 28.672-4.096 8.192-8.192 4.096-20.48-4.096-28.672l-57.344-40.96 0-331.776c0-16.384-4.096-28.672-16.384-40.96L196.608 180.224l626.688 0-233.472 241.664c-12.288 12.288-16.384 24.576-16.384 40.96l0 454.656c0 12.288 8.192 20.48 20.48 20.48s20.48-8.192 20.48-20.48L614.4 462.848c0-4.096 0-8.192 4.096-12.288l270.336-278.528C897.024 167.936 897.024 159.744 892.928 151.552z" p-id="1895" fill="#969696"></path></svg>