<?xml version="1.0" encoding="UTF-8"?>
<svg width="10px" height="10px" viewBox="0 0 10 10" version="1.1" xmlns="http://www.w3.org/2000/svg" xmlns:xlink="http://www.w3.org/1999/xlink">
    <!-- Generator: Sketch 51.2 (57519) - http://www.bohemiancoding.com/sketch -->
    <title>收藏</title>
    <desc>Created with Sketch.</desc>
    <defs></defs>
    <g id="Symbols" stroke="none" stroke-width="1" fill="none" fill-rule="evenodd">
        <g id="icon-/收藏" transform="translate(-1.000000, -1.000000)" fill-rule="nonzero">
            <g id="收藏" transform="translate(1.000000, 1.000000)">
                <rect id="Rectangle-path" fill="#000000" opacity="0" x="0.00974658869" y="0" width="9.98050682" height="9.98050682"></rect>
                <path d="M7.75773879,9.8245614 C7.67150222,9.82456349 7.5866177,9.80312801 7.51072125,9.76218324 L5,8.42354776 L2.48990253,9.76218324 C2.26998354,9.87564216 2.00095703,9.82353924 1.83929825,9.63617934 C1.73827677,9.5164805 1.69534874,9.35824048 1.72202729,9.20389864 L2.20296296,6.36382066 L0.167563353,4.35274854 C0.0234954202,4.21113403 -0.0273339539,3.99982906 0.0365692008,3.80818713 C0.0981520529,3.6172719 0.262878086,3.47794416 0.461364522,3.44888889 L3.26962963,3.03532164 L4.52592593,0.453489279 C4.70432749,0.0860818713 5.29567251,0.0860818713 5.47469786,0.453489279 L6.73161793,3.03532164 L9.53925926,3.44888889 C9.73824561,3.47820663 9.90105263,3.61606238 9.96405458,3.80818713 C10.02791,4.0000271 9.9771021,4.21148475 9.83306043,4.35337232 L7.7982846,6.36444444 L8.27922027,9.2051462 C8.30546757,9.35893557 8.26265142,9.51647939 8.1621726,9.63582803 C8.06169379,9.75517667 7.91375152,9.82421552 7.75773879,9.8245614 Z M0.737699805,4.03898635 L2.67516569,5.9539961 C2.79820304,6.07580488 2.85428227,6.24985993 2.82549708,6.4205848 L2.36639376,9.13403509 L4.75298246,7.84842105 C4.90783626,7.767975 5.09216374,7.767975 5.24701754,7.84842105 L7.63173489,9.11968811 L7.17512671,6.42120858 C7.14568926,6.24964042 7.20234248,6.07455165 7.32670565,5.95274854 L9.26292398,4.03898635 L6.58939571,3.64538012 C6.41625496,3.61987554 6.26710605,3.51000095 6.191423,3.35220273 L5,0.904483431 L3.808577,3.35282651 C3.7324031,3.50999879 3.58339778,3.6193005 3.41060429,3.64475634 L0.737699805,4.03898635 Z" id="Shape" fill="#666666"></path>
            </g>
        </g>
    </g>
</svg>