<?xml version="1.0" encoding="UTF-8"?>
<svg width="10px" height="10px" viewBox="0 0 10 10" version="1.1" xmlns="http://www.w3.org/2000/svg" xmlns:xlink="http://www.w3.org/1999/xlink">
    <!-- Generator: Sketch 51.2 (57519) - http://www.bohemiancoding.com/sketch -->
    <title>收藏</title>
    <desc>Created with Sketch.</desc>
    <defs></defs>
    <g id="Symbols" stroke="none" stroke-width="1" fill="none" fill-rule="evenodd">
        <g id="icon-/已收藏" transform="translate(-1.000000, -1.000000)" fill-rule="nonzero">
            <g id="收藏" transform="translate(1.000000, 1.000000)">
                <rect id="Rectangle-path" fill="#000000" opacity="0" x="0" y="0" width="10" height="10"></rect>
                <path d="M9.915,3.7276923 C9.82961538,3.46923076 9.60884615,3.28153846 9.345,3.24076923 L6.7673077,2.84076923 L5.64807692,0.416923076 C5.53038462,0.162307695 5.2773077,0 5.00038462,0 C4.72346154,0 4.47038462,0.162307695 4.3526923,0.416923076 L3.2326923,2.84076923 L0.655,3.24076923 C0.390384619,3.28153846 0.170384619,3.46923077 0.085,3.7276923 C-0.000384619141,3.98615385 0.0642307715,4.27153846 0.251153848,4.46538461 L2.13961538,6.43076923 L1.70192308,9.15692308 C1.65807692,9.43153846 1.77192308,9.70615385 1.995,9.8676923 C2.11884615,9.95538462 2.2626923,10 2.4073077,10 C2.52576924,10 2.64576924,9.96923077 2.75269231,9.91 L4.99961539,8.68846154 L7.24653847,9.91 C7.355,9.96923077 7.47423077,10 7.59346154,10 C7.73807692,10 7.88192309,9.95538462 8.00576924,9.8676923 C8.22884616,9.70615385 8.34269231,9.43153846 8.29807693,9.15692308 L7.86038462,6.43076923 L9.74961539,4.46538461 C9.93576923,4.27076923 9.99961538,3.98615385 9.915,3.7276923 Z" id="Shape" fill="#407CD5"></path>
            </g>
        </g>
    </g>
</svg>