<?xml version="1.0" encoding="UTF-8"?>
<svg width="114px" height="87px" viewBox="0 0 114 87" version="1.1" xmlns="http://www.w3.org/2000/svg" xmlns:xlink="http://www.w3.org/1999/xlink">
    <!-- Generator: Sketch 50.2 (55047) - http://www.bohemiancoding.com/sketch -->
    <title>Group 21</title>
    <desc>Created with Sketch.</desc>
    <defs></defs>
    <g id="标准" stroke="none" stroke-width="1" fill="none" fill-rule="evenodd">
        <g id="看研报-管理添加/删除-copy-3" transform="translate(-504.000000, -164.000000)">
            <g id="Group-23" transform="translate(437.000000, 164.000000)">
                <g id="Group-21" transform="translate(67.000000, 0.000000)">
                    <ellipse id="Oval-4" fill="#D8D8D8" opacity="0.372098214" cx="58" cy="77" rx="52" ry="10"></ellipse>
                    <rect id="Rectangle-6-Copy-5" stroke="#EBEBEB" stroke-width="2" fill="#FFFFFF" opacity="0.51328125" x="9" y="19" width="56" height="56" rx="12"></rect>
                    <g id="Group-17">
                        <rect id="Rectangle-6" stroke="#EBEBEB" stroke-width="2" fill="#F8F8F8" x="19" y="1" width="76" height="76" rx="12"></rect>
                        <rect id="Rectangle-6" stroke="#EBEBEB" stroke-width="2" fill="#FFFFFF" x="19" y="1" width="76" height="76" rx="12"></rect>
                        <rect id="Rectangle-15" fill="#EBEBEB" x="0" y="9.5" width="10" height="1.66666667" rx="0.833333333"></rect>
                        <rect id="Rectangle-15-Copy" fill="#EBEBEB" transform="translate(5.000000, 10.333333) rotate(-270.000000) translate(-5.000000, -10.333333) " x="0" y="9.5" width="10" height="1.66666667" rx="0.833333333"></rect>
                        <path d="M29.5,2.5 L29.5,54.5384473" id="Line-10" stroke-opacity="0.383973053" stroke="#EBEBEB" stroke-linecap="square"></path>
                        <path d="M47.8333333,2.5 L47.8333333,41.5056976" id="Line-10-Copy-2" stroke-opacity="0.383973053" stroke="#EBEBEB" stroke-linecap="square"></path>
                        <path d="M66.1666667,2.5 L66.1666667,40.5233846" id="Line-10-Copy-4" stroke-opacity="0.383973053" stroke="#EBEBEB" stroke-linecap="square"></path>
                        <path d="M84.5,2.5 L84.5,25.5867928" id="Line-10-Copy-6" stroke-opacity="0.383973053" stroke="#EBEBEB" stroke-linecap="square"></path>
                        <path d="M18.7810059,59.6748047 L50.8869629,38.1019287 L57.3789062,47.1889648 L94.7614746,15.3632812 L94.7614746,68.4128418 C93.6931522,71.1993379 92.6540083,73.0788951 91.644043,74.0515137 C90.6340776,75.0241322 88.7462195,75.9633412 85.9804687,76.8691406 L27.6755371,76.8691406 C25.2144058,75.7473777 23.5859064,74.8081687 22.7900391,74.0515137 C21.9941717,73.2948586 20.6578273,71.4153013 18.7810059,68.4128418 L18.7810059,59.6748047 Z" id="Line-4" stroke="#EBEBEB" fill="#E3E3E3" opacity="0.163448661" stroke-linecap="square"></path>
                    </g>
                    <g id="添加" transform="translate(77.000000, 41.000000)">
                        <rect id="Rectangle-path" fill="#000000" fill-rule="nonzero" opacity="0" x="1" y="5" width="32" height="32"></rect>
                        <path d="M0,18 C0,8.05887454 8.05887436,0 18,0 C27.9411269,0 36,8.05887454 36,18 C36,27.9411255 27.9411269,36 18,36 C8.05887436,36 0,27.9411255 0,18 Z" id="Shape" stroke="#DEDEDE" stroke-width="1.5" fill="#FFFFFF" fill-rule="nonzero" stroke-dasharray="3"></path>
                        <path d="M19.0040449,16.9959551 L19.0040449,10.046914 C19.0040449,9.40259709 18.4854379,8.88756258 17.8457031,8.88756258 C17.2015087,8.88756258 16.6873613,9.40662192 16.6873613,10.046914 L16.6873613,16.9959551 L9.73832012,16.9959551 C9.0940035,16.9959551 8.57896883,17.5145624 8.57896883,18.1542969 C8.57896883,18.7984915 9.09802817,19.3126387 9.73832012,19.3126387 L16.6873613,19.3126387 L16.6873613,26.2616797 C16.6873613,26.9059967 17.2059683,27.4210312 17.8457031,27.4210312 C18.4898975,27.4210312 19.0040449,26.9019718 19.0040449,26.2616797 L19.0040449,19.3126387 L25.9530879,19.3126387 C26.5974039,19.3126387 27.1124374,18.7940314 27.1124374,18.1542969 C27.1124374,17.5101022 26.5933787,16.9959551 25.9530879,16.9959551 L19.0040449,16.9959551 Z" id="Path" fill="#EBEBEB"></path>
                    </g>
                    <polyline id="Line-4" stroke="#EBEBEB" stroke-width="3" stroke-linecap="square" points="20.0415039 58.9863281 50.8869629 38.1019287 57.3789063 47.1889648 89.862793 19.6027832"></polyline>
                    <polygon id="Rectangle-14" fill="#EBEBEB" points="85 14 94 14 94 23"></polygon>
                </g>
            </g>
        </g>
    </g>
</svg>