<?xml version="1.0" encoding="UTF-8"?>
<svg width="120px" height="124px" viewBox="0 0 120 124" version="1.1" xmlns="http://www.w3.org/2000/svg" xmlns:xlink="http://www.w3.org/1999/xlink">
    <!-- Generator: Sketch 50.2 (55047) - http://www.bohemiancoding.com/sketch -->
    <title>Group 5</title>
    <desc>Created with Sketch.</desc>
    <defs></defs>
    <g id="标准" stroke="none" stroke-width="1" fill="none" fill-rule="evenodd">
        <g id="看研报-管理添加/删除-copy" transform="translate(-600.000000, -906.000000)">
            <g id="重要公告" transform="translate(240.000000, 193.000000)">
                <g id="Group-18">
                    <g id="tag" transform="translate(0.000000, 46.000000)">
                        <g id="Group-8" transform="translate(0.000000, 483.000000)">
                            <g id="Group-5" transform="translate(360.000000, 184.000000)">
                                <ellipse id="Oval-4" fill="#D8D8D8" opacity="0.372098214" cx="60" cy="102.424242" rx="60" ry="11.5151515"></ellipse>
                                <ellipse id="Oval-4-Copy" fill="#D8D8D8" opacity="0.372098214" cx="95.7575758" cy="121.818182" rx="8.48484848" ry="1.81818182"></ellipse>
                                <path d="M33.4772727,30.7651515 L107.128788,30.7651515 L107.128788,14.9090909 C107.128788,13.1141655 105.673713,11.6590909 103.878788,11.6590909 L36.7272727,11.6590909 C34.9323473,11.6590909 33.4772727,13.1141655 33.4772727,14.9090909 L33.4772727,30.7651515 Z" id="Rectangle-7-Copy-2" stroke="#E5E5E5" stroke-width="1.5"></path>
                                <path d="M106.469482,14.2300299 C106.33204,13.3944862 106.025764,12.7755125 105.563452,12.355607 C104.933869,11.7837736 103.311951,11.5120546 100.752574,11.6520061 C100.666204,11.656729 100.579722,11.6590917 100.493223,11.6590917 L29.4545454,11.6590909 C27.65962,11.6590909 26.2045455,13.1141655 26.2045455,14.9090909 L26.2045455,102.666667 C26.2045455,104.461592 27.65962,105.916667 29.4545455,105.916667 L96.6060606,105.916667 C98.400986,105.916667 99.8560606,104.461592 99.8560606,102.666667 L99.8583333,19.7529452 C99.6580259,17.1857917 100.776095,15.4310408 103.111377,14.6926812 C104.479984,14.2599605 105.598881,14.0921695 106.469482,14.2300299 Z" id="Rectangle-7" stroke="#E5E5E5" stroke-width="1.5" fill="#FFFFFF"></path>
                                <g id="Group-12" transform="translate(47.272727, 26.666667)" fill="#D8D8D8">
                                    <path d="M15.1612361,52.3678152 C13.4927869,52.3707814 11.9869188,51.3681361 11.3464197,49.8278794 C10.7059206,48.287252 11.0567584,46.5126708 12.2353324,45.3315942 C13.4139063,44.1508883 15.1881167,43.7968063 16.7297637,44.4343393 C18.2711327,45.0723357 19.2766514,46.5760719 19.2766514,48.2445211 C19.2766514,50.5158366 17.4397816,52.359473 15.1688368,52.3678152 L15.1612361,52.3678152 Z" id="Path"></path>
                                    <path d="M30.3731907,19.4908471 C29.6291551,21.0854211 28.0418111,23.0365797 25.6122709,25.3452499 C23.9115651,26.9227687 22.2945597,28.5879736 20.7676506,30.333913 C19.9395437,31.3867972 19.3254617,32.5914175 18.9605348,33.8801091 C18.5043066,35.6875957 18.3225383,37.5537562 18.4214403,39.4155601 L12.0578824,39.4155601 C11.9978182,37.2379558 12.2147166,35.0611858 12.7034795,32.9383622 C13.0999216,31.4245227 13.7661889,29.9942909 14.670303,28.7165369 C16.1193512,26.8442588 17.6896399,25.0685654 19.3704171,23.4012285 C20.9838075,21.8399309 22.448057,20.131717 23.7442567,18.2984621 C24.4908877,16.8252214 24.8265241,15.1780913 24.7161283,13.5299416 C24.7218752,11.4537419 23.9180535,9.45725706 22.4759572,7.96408772 C20.9877932,6.34921428 18.8186239,5.54177756 15.9687273,5.54177756 C9.55993583,5.54177756 6.35558645,9.3385191 6.35558645,16.9316314 L0,16.9316314 C0.0959358289,13.4589398 0.506188948,10.8190824 1.23001783,9.01196651 C1.99286988,7.14867952 3.18154724,5.48968487 4.70011408,4.16734619 C6.24370766,2.77446919 8.0511943,1.70564209 10.0154225,1.02380252 C12.0039358,0.340201806 14.0934831,-0.00377680379 16.1964706,0.00632658302 C20.2050125,-0.106571813 24.1092763,1.29501821 27.1307451,3.93200216 C30.0516435,6.51364922 31.5094046,9.94824459 31.5043066,14.2359736 C31.526738,16.0496706 31.1426239,17.8452 30.3807914,19.4908471 L30.3731907,19.4908471 Z" id="Path"></path>
                                </g>
                                <path d="M18.9318182,105.916667 L92.5833333,105.916667 L92.5833333,90.0606061 C92.5833333,88.2656806 91.1282588,86.8106061 89.3333333,86.8106061 L22.1818182,86.8106061 C20.3868927,86.8106061 18.9318182,88.2656806 18.9318182,90.0606061 L18.9318182,105.916667 Z" id="Rectangle-7-Copy-3" stroke="#E5E5E5" stroke-width="1.5" fill="#FFFFFF" transform="translate(55.757576, 96.363636) scale(1, -1) translate(-55.757576, -96.363636) "></path>
                                <path d="M118.274944,78.3257576 L73.2395174,78.3257576 L91.6590909,98.0870009 L91.6590909,114.401515 L99.8560606,114.401515 L99.8560606,98.0746662 L118.274944,78.3257576 Z" id="Combined-Shape" stroke="#E5E5E5" stroke-width="1.5" fill="#FFFFFF"></path>
                                <rect id="Rectangle-8" stroke="#E5E5E5" stroke-width="1.5" fill="#FFFFFF" x="72.2651515" y="73.4772727" width="46.9848485" height="5.77272727"></rect>
                                <g id="Group-7" transform="translate(12.121212, 0.000000)" fill="#EBEBEB">
                                    <rect id="Rectangle-15" x="0" y="4.84848485" width="10.9090909" height="2.72727273" rx="1.36363636"></rect>
                                    <rect id="Rectangle-15-Copy" transform="translate(5.454545, 6.212121) rotate(-270.000000) translate(-5.454545, -6.212121) " x="0" y="4.84848485" width="10.9090909" height="2.72727273" rx="1.36363636"></rect>
                                </g>
                                <g id="Group-7-Copy-2" transform="translate(106.666667, 49.696970)" fill="#EBEBEB">
                                    <rect id="Rectangle-15" x="0" y="3.23232323" width="7.27272727" height="1.81818182" rx="0.909090909"></rect>
                                    <rect id="Rectangle-15-Copy" transform="translate(3.636364, 4.141414) rotate(-270.000000) translate(-3.636364, -4.141414) " x="0" y="3.23232323" width="7.27272727" height="1.81818182" rx="0.909090909"></rect>
                                </g>
                                <g id="Group-7-Copy" transform="translate(16.969697, 67.878788)" fill="#EBEBEB">
                                    <rect id="Rectangle-15" x="0" y="2.15488215" width="4.84848485" height="1.21212121" rx="0.606060606"></rect>
                                    <rect id="Rectangle-15-Copy" transform="translate(2.424242, 2.760943) rotate(-270.000000) translate(-2.424242, -2.760943) " x="0" y="2.15488215" width="4.84848485" height="1.21212121" rx="0.606060606"></rect>
                                </g>
                            </g>
                        </g>
                    </g>
                </g>
            </g>
        </g>
    </g>
</svg>