<?xml version="1.0" encoding="UTF-8"?>
<svg width="104px" height="102px" viewBox="0 0 104 102" version="1.1" xmlns="http://www.w3.org/2000/svg" xmlns:xlink="http://www.w3.org/1999/xlink">
    <!-- Generator: Sketch 50.2 (55047) - http://www.bohemiancoding.com/sketch -->
    <title>Group 21</title>
    <desc>Created with Sketch.</desc>
    <defs></defs>
    <g id="标准" stroke="none" stroke-width="1" fill="none" fill-rule="evenodd">
        <g id="看研报-管理添加/删除-copy-3" transform="translate(-514.000000, -565.000000)">
            <g id="Group-23" transform="translate(476.000000, 565.000000)">
                <g id="Group-21" transform="translate(38.000000, 0.000000)">
                    <ellipse id="Oval-4" fill="#D8D8D8" opacity="0.372098214" cx="52" cy="92" rx="52" ry="10"></ellipse>
                    <g id="Group-17" transform="translate(18.000000, 8.000000)" stroke="#EBEBEB" stroke-width="2">
                        <rect id="Rectangle-6" fill="#F8F8F8" x="1" y="1" width="68" height="85" rx="12"></rect>
                        <rect id="Rectangle-6-Copy-5" fill="#FFFFFF" x="8.31343284" y="7.28915663" width="53.3731343" height="73.4698795" rx="9"></rect>
                    </g>
                    <g id="Group-16" transform="translate(51.000000, 33.000000)" fill="#EBEBEB">
                        <rect id="Rectangle-15" x="0" y="5.41666667" width="13" height="2.16666667" rx="1.08333333"></rect>
                        <rect id="Rectangle-15-Copy" transform="translate(6.500000, 6.500000) rotate(-270.000000) translate(-6.500000, -6.500000) " x="0" y="5.41666667" width="13" height="2.16666667" rx="1.08333333"></rect>
                    </g>
                    <g id="Group-16-Copy-3" transform="translate(40.000000, 64.000000)" fill="#EBEBEB">
                        <rect id="Rectangle-15" x="0" y="3.33333333" width="8" height="1.33333333" rx="0.666666667"></rect>
                        <rect id="Rectangle-15-Copy" transform="translate(4.000000, 4.000000) rotate(-270.000000) translate(-4.000000, -4.000000) " x="0" y="3.33333333" width="8" height="1.33333333" rx="0.666666667"></rect>
                    </g>
                    <g id="Group-16-Copy-2" transform="translate(6.000000, 25.000000)" fill="#EBEBEB">
                        <rect id="Rectangle-15" x="0" y="2.5" width="6" height="1" rx="0.5"></rect>
                        <rect id="Rectangle-15-Copy" transform="translate(3.000000, 3.000000) rotate(-270.000000) translate(-3.000000, -3.000000) " x="0" y="2.5" width="6" height="1" rx="0.5"></rect>
                    </g>
                    <path d="M50.5277778,3.5 L50.5277778,5.11363636 L38.5,5.11363636 C36.9812169,5.11363636 35.75,6.3448533 35.75,7.86363636 L35.75,8.5 C35.75,10.0187831 36.9812169,11.25 38.5,11.25 L69.5,11.25 C71.0187831,11.25 72.25,10.0187831 72.25,8.5 L72.25,7.86363636 C72.25,6.3448533 71.0187831,5.11363636 69.5,5.11363636 L58.5277778,5.11363636 L58.5277778,3.5 C58.5277778,1.98121694 57.2965608,0.75 55.7777778,0.75 L53.2777778,0.75 C51.7589947,0.75 50.5277778,1.98121694 50.5277778,3.5 Z" id="Combined-Shape" stroke="#E5E5E5" stroke-width="1.5" fill="#FFFFFF"></path>
                    <circle id="Oval-5" stroke="#E5E5E5" fill="#FFFFFF" cx="54.5" cy="4.5" r="1.5"></circle>
                    <g id="设置" transform="translate(63.000000, 56.000000)">
                        <rect id="Rectangle-path" fill="#000000" fill-rule="nonzero" opacity="0" x="1" y="0" width="44" height="44"></rect>
                        <path d="M20.0253906,26.8384864 C24.4698351,26.8384864 27.9420573,23.2945318 27.9420573,18.9327415 C27.9420573,14.5709513 24.3309462,11.0269967 20.0253906,11.0269967 C15.5809462,11.0269967 12.108724,14.5709513 12.108724,18.9327415 C12.108724,23.2945318 15.7198351,26.8384864 20.0253906,26.8384864 Z M13.4722222,37.9465265 C11.1111111,37.1286908 8.88888889,35.9019373 6.94444444,34.12996 C6.66666667,33.8573481 6.52777778,33.4484303 6.66666667,33.1758184 C7.36111111,31.1312292 7.08333333,28.9503341 5.97222222,27.1783568 C4.86111111,25.2700735 3.19444444,24.04332 1.11111111,23.6344022 C0.694444444,23.4980962 0.416666667,23.2254843 0.416666667,22.8165665 C0.138888889,21.589813 0,20.2267535 0,19 C0,17.7732465 0.138888889,16.546493 0.416666667,15.1834335 C0.555555556,14.7745157 0.833333333,14.5019038 1.11111111,14.3655978 C3.19444444,13.820374 5,12.5936205 5.97222222,10.8216432 C7.08333333,8.91335998 7.22222222,6.86877079 6.66666667,4.8241816 C6.52777778,4.41526376 6.66666667,4.00634592 6.94444444,3.87003998 C8.88888889,2.23436862 11.1111111,1.00761511 13.4722222,0.0534734831 C13.8888889,-0.082832463 14.1666667,0.0534734831 14.4444444,0.326085375 C15.9722222,1.82545078 17.9166667,2.77959241 20,2.77959241 C22.0833333,2.77959241 24.1666667,1.96175673 25.5555556,0.326085375 C25.8333333,0.0534734831 26.25,-0.082832463 26.5277778,0.0534734831 C28.8888889,0.87130916 31.1111111,2.09806268 33.0555556,3.87003998 C33.3333333,4.14265187 33.4722222,4.55156971 33.3333333,4.8241816 C32.6388889,6.86877079 32.9166667,9.04966593 34.0277778,10.8216432 C35.1388889,12.7299265 36.8055556,13.95668 38.8888889,14.3655978 C39.3055556,14.5019038 39.5833333,14.7745157 39.5833333,15.1834335 C39.8611111,16.410187 40,17.7732465 40,19 C40,20.2267535 39.8611111,21.453507 39.5833333,22.8165665 C39.4444444,23.2254843 39.1666667,23.4980962 38.8888889,23.6344022 C36.8055556,24.179626 35,25.4063795 34.0277778,27.1783568 C32.9166667,29.08664 32.7777778,31.1312292 33.3333333,33.1758184 C33.4722222,33.5847362 33.3333333,33.9936541 33.0555556,34.12996 C31.1111111,35.7656314 28.8888889,36.9923849 26.5277778,37.9465265 C26.1111111,38.0828325 25.8333333,37.9465265 25.5555556,37.6739146 C24.0277778,36.1745492 22.0833333,35.2204076 20,35.2204076 C17.9166667,35.2204076 15.8333333,36.0382433 14.4444444,37.6739146 C14.3055556,37.8102206 14.0277778,37.9465265 13.75,37.9465265 L13.4722222,37.9465265 Z" id="Shape" stroke="#EBEBEB" stroke-width="2" fill="#FFFFFF" fill-rule="nonzero"></path>
                        <ellipse id="Oval-6" fill="#EBEBEB" cx="20" cy="19.0185171" rx="8" ry="7.8512225"></ellipse>
                        <ellipse id="Oval-6" fill="#FFFFFF" cx="20" cy="18.8698197" rx="7" ry="6.86981969"></ellipse>
                    </g>
                </g>
            </g>
        </g>
    </g>
</svg>