<?xml version="1.0" encoding="UTF-8"?>
<svg width="56px" height="57px" viewBox="0 0 56 57" version="1.1" xmlns="http://www.w3.org/2000/svg" xmlns:xlink="http://www.w3.org/1999/xlink">
    <!-- Generator: Sketch 50.2 (55047) - http://www.bohemiancoding.com/sketch -->
    <title>公告 (1)</title>
    <desc>Created with Sketch.</desc>
    <defs></defs>
    <g id="Symbols" stroke="none" stroke-width="1" fill="none" fill-rule="evenodd">
        <g id="Icon/订阅公告" transform="translate(-7.000000, -6.000000)" fill-rule="nonzero">
            <g id="公告-(1)" transform="translate(7.675781, 6.507812)">
                <path d="M19.3332348,0.0450349961 L52.7305271,0.0450349961 C53.8690711,0.0450349961 54.6281005,0.971505584 54.6281005,2.03032911 L54.6281005,26.7803291 C54.6281005,27.9715056 53.7425662,28.7656232 52.7305271,28.7656232 L49.18839,28.7656232 L49.18839,36.045035 L49.0618851,36.045035 L42.1041159,28.7656232 L19.3332348,28.7656232 C18.1946908,28.7656232 17.4356614,27.8391526 17.4356614,26.7803291 L17.4356614,2.16268205 C17.4356614,0.971505584 18.1946908,0.0450349961 19.3332348,0.0450349961 Z" id="Shape" fill="#85BCF9"></path>
                <path d="M48.1643117,15.0318581 L33.2367341,15.0318581 C32.6042096,15.0318581 32.0981901,14.4169803 32.0981901,13.6483831 L32.0981901,12.8797858 C32.0981901,12.1111885 32.6042096,11.4963107 33.2367341,11.4963107 L48.1643117,11.4963107 C48.7968362,11.4963107 49.3028557,12.1111885 49.3028557,12.8797858 L49.3028557,13.6483831 C49.3028557,14.4169803 48.7968362,15.0318581 48.1643117,15.0318581 Z" id="Shape" fill="#E4EAF6"></path>
                <path d="M41.2969299,11.8070438 L22.1946908,11.8070438 L22.1946908,29.7070435 L43.4475131,29.7070435 L43.4475131,13.6854389 C43.4475131,12.5805006 42.435474,11.8070438 41.2969299,11.8070438 Z" id="Shape" fill="#5092D8"></path>
                <path d="M39.0198418,11.8070438 L2.20691742,11.8070438 C1.06837337,11.8070438 0.0563342109,12.976479 0.0563342109,14.2920937 L0.0563342109,44.5512299 C0.0563342109,45.8668445 1.06837337,47.0362797 2.20691742,47.0362797 L6.12856916,47.0362797 L6.12856916,55.8070438 L6.25507405,55.8070438 L13.8453677,47.0362797 L38.8933369,47.0362797 C40.031881,47.0362797 41.0439201,45.8668445 41.0439201,44.5512299 L41.0439201,14.2920937 C41.170425,12.8302996 40.1583859,11.8070438 39.0198418,11.8070438 Z" id="Shape" fill="#539BFB"></path>
                <path d="M31.556053,26.5641113 L9.67070621,26.5641113 C9.03818174,26.5641113 8.53216216,25.9492335 8.53216216,25.1806363 L8.53216216,24.412039 C8.53216216,23.6434417 9.03818174,23.0285639 9.67070621,23.0285639 L31.6825579,23.0285639 C32.3150824,23.0285639 32.821102,23.6434417 32.821102,24.412039 L32.821102,25.1806363 C32.821102,25.9492335 32.3150824,26.5641113 31.556053,26.5641113 Z" id="Shape" fill="#FFD664"></path>
                <path d="M24.5982838,35.7872785 L9.54420132,35.7872785 C8.91167684,35.7872785 8.40565727,35.1724007 8.40565727,34.4038035 L8.40565727,33.6352062 C8.40565727,32.8666089 8.91167684,32.2517311 9.54420132,32.2517311 L24.4717789,32.2517311 C25.1043034,32.2517311 25.610323,32.8666089 25.610323,33.6352062 L25.610323,34.4038035 C25.7368278,35.1724007 25.2308083,35.7872785 24.5982838,35.7872785 Z" id="Shape" fill="#FFFFFF"></path>
            </g>
        </g>
    </g>
</svg>