<?xml version="1.0" encoding="UTF-8"?>
<svg width="47px" height="47px" viewBox="0 0 47 47" version="1.1" xmlns="http://www.w3.org/2000/svg" xmlns:xlink="http://www.w3.org/1999/xlink">
    <!-- Generator: Sketch 50.2 (55047) - http://www.bohemiancoding.com/sketch -->
    <title>Icon/订阅数据</title>
    <desc>Created with Sketch.</desc>
    <defs></defs>
    <g id="搜索卡片" stroke="none" stroke-width="1" fill="none" fill-rule="evenodd">
        <g id="综合首页-分类推荐1" transform="translate(-1107.000000, -133.000000)">
            <g id="Group-7" transform="translate(1063.000000, 39.000000)">
                <g id="Group-10">
                    <g id="Icon/订阅数据" transform="translate(37.000000, 88.000000)">
                        <g id="Rectangle">
                            <rect x="0" y="0" width="60" height="60" rx="8"></rect>
                        </g>
                        <g id="数据-(5)" transform="translate(7.058824, 6.176471)">
                            <polygon id="Shape" fill="#FFD664" fill-rule="nonzero" points="33.3664956 30.0326359 38.8345835 30.0326359 38.8345835 13.1819976 33.3664956 13.1819976"></polygon>
                            <path d="M43.7447033,32.0413212 C43.7447033,32.5992894 43.2983288,33.1572575 42.7403606,33.1572576 L4.01737071,33.1572576 C3.45940254,33.1572576 3.01302803,32.710883 3.01302803,32.0413212 L3.01302803,4.25450715 C3.01302803,3.69653898 3.45940254,3.13857086 4.01737071,3.13857086 L42.7403606,3.13857086 C43.2983288,3.13857086 43.7447033,3.58494537 43.7447033,4.25450715 L43.7447033,32.0413212 Z M43.7447033,0.0139492213 L3.01302803,0.0139492213 C1.33912357,0.0139492213 0,1.4646664 0,3.13857086 L0,33.0456639 C0,34.831162 1.33912357,36.2818792 3.01302803,36.2818792 L43.7447033,36.2818792 C45.4186077,36.2818792 46.7577313,34.831162 46.7577313,33.0456639 L46.7577313,3.13857086 C46.8693249,1.4646664 45.4186077,0.0139492213 43.7447033,0.0139492213 Z M30.6882485,38.9601263 C30.6882485,38.4021582 30.241874,37.84419 29.7954994,37.84419 L17.0738255,37.84419 C16.627451,37.84419 16.1810764,38.2905645 16.1810764,38.9601263 L16.1810764,43.3122779 L7.14199235,43.3122779 L7.14199235,46.5484932 L39.7273326,46.5484932 L39.7273326,43.3122779 L30.6882485,43.3122779 L30.6882485,38.9601263 Z" id="Shape" fill="#85BCF9" fill-rule="nonzero"></path>
                            <path d="M24.5505987,30.0326359 L30.0186867,30.0326359 L30.0186867,8.04869063 L24.5505987,8.04869063 L24.5505987,30.0326359 Z M8.03474141,30.0326359 L13.5028293,30.0326359 L13.5028293,23.5602053 L8.03474141,23.5602053 L8.03474141,30.0326359 Z M15.7347019,30.0326359 L21.2027898,30.0326359 L21.2027898,18.3153046 L15.7347019,18.3153046 L15.7347019,30.0326359 Z" id="Shape" fill="#539BFB" fill-rule="nonzero"></path>
                        </g>
                    </g>
                </g>
            </g>
        </g>
    </g>
</svg>