<?xml version="1.0" encoding="UTF-8"?>
<svg width="46px" height="46px" viewBox="0 0 46 46" version="1.1" xmlns="http://www.w3.org/2000/svg" xmlns:xlink="http://www.w3.org/1999/xlink">
    <!-- Generator: Sketch 50.2 (55047) - http://www.bohemiancoding.com/sketch -->
    <title>资讯 (1)</title>
    <desc>Created with Sketch.</desc>
    <defs></defs>
    <g id="Symbols" stroke="none" stroke-width="1" fill="none" fill-rule="evenodd">
        <g id="Icon/订阅研报" transform="translate(-12.000000, -11.000000)">
            <g id="资讯-(1)" transform="translate(12.000000, 11.000000)">
                <path d="M41.4,46 L4.6,46 C2.0593625,46 0,43.9406375 0,41.4 L0,4.6 C0,2.0593625 2.0593625,0 4.6,0 L41.4,0 C43.9406375,0 46,2.0593625 46,4.6 L46,41.4 C46,43.9406375 43.9406375,46 41.4,46 Z M35.075,21.85 L27.025,21.85 C26.0723088,21.8500001 25.3000001,22.6223088 25.3000001,23.575 C25.3000001,24.5276912 26.0723088,25.2999999 27.025,25.3 L35.075,25.3 C36.0276912,25.3 36.8,24.5276912 36.8,23.575 C36.8,22.6223088 36.0276912,21.85 35.075,21.85 Z" id="Shape" fill="#539BFB" fill-rule="nonzero"></path>
                <path d="M10.925,33.35 L18.975,33.35 C19.9276912,33.35 20.7,32.5776912 20.7,31.625 L20.7,23.575 C20.7,22.6223088 19.9276912,21.85 18.975,21.85 L10.925,21.85 C9.97230881,21.85 9.2,22.6223088 9.2,23.575 L9.2,31.625 C9.2,32.5776912 9.97230881,33.35 10.925,33.35 Z" id="Path" fill="#FFD664"></path>
                <path d="M35.075,12.65 L10.925,12.65 C9.97230881,12.65 9.2,13.4223088 9.2,14.375 C9.2,15.3276912 9.97230881,16.1 10.925,16.1 L35.075,16.1 C36.0276912,16.1 36.8,15.3276912 36.8,14.375 C36.8,13.4223088 36.0276912,12.65 35.075,12.65 Z" id="Path" fill="#FFFFFF"></path>
                <path d="M35.075,29.9 L27.025,29.9 C26.0723088,29.9 25.3,30.6723088 25.3,31.625 C25.3,32.5776912 26.0723088,33.35 27.025,33.35 L35.075,33.35 C36.0276912,33.35 36.8,32.5776912 36.8,31.625 C36.8,30.6723088 36.0276912,29.9 35.075,29.9 Z" id="Path" fill="#FFFFFF"></path>
            </g>
        </g>
    </g>
</svg>