<?xml version="1.0" encoding="UTF-8"?>
<svg width="48px" height="53px" viewBox="0 0 48 53" version="1.1" xmlns="http://www.w3.org/2000/svg" xmlns:xlink="http://www.w3.org/1999/xlink">
    <!-- Generator: Sketch 50.2 (55047) - http://www.bohemiancoding.com/sketch -->
    <title>资讯 (2)</title>
    <desc>Created with Sketch.</desc>
    <defs></defs>
    <g id="Symbols" stroke="none" stroke-width="1" fill="none" fill-rule="evenodd">
        <g id="Icon/订阅资讯" transform="translate(-11.000000, -8.000000)" fill-rule="nonzero">
            <g id="资讯-(2)" transform="translate(11.000000, 8.000000)">
                <path d="M43.5928487,52.173913 L43.015847,52.173913 C40.5919015,52.173913 38.6086955,50.4750004 38.6086957,48.3985282 L38.6086957,23.6014717 C38.6086957,21.5249996 40.5919015,19.8260869 43.015847,19.826087 L43.5928487,19.826087 C46.0167941,19.826087 48.0000001,21.5249996 48,23.6014717 L48,48.3985282 C48,50.4750003 46.0167941,52.173913 43.5928487,52.173913 Z" id="Shape" fill="#539BFB"></path>
                <path d="M41.3155266,48.2502487 C41.3474748,48.0440771 41.3155266,48.2502487 41.3155266,48.035574 L41.3155266,4.138339 C41.3155266,1.86226305 39.4511815,0 37.1725609,0 L4.14296574,0 C1.86434509,0 0,1.86226305 0,4.138339 L0,48.035574 C0,50.31165 1.86434509,52.173913 4.14296574,52.173913 L43.826087,52.173913 C43.826087,52.173913 42.0900601,50.7884481 41.3155266,48.2502487 Z" id="Shape" fill="#85BCF9"></path>
                <path d="M32.7860164,17.8267188 L6.86615744,17.8267188 C6.53324375,17.8267188 6.26086957,17.555216 6.26086957,17.2233674 L6.26086957,6.86422097 C6.26086957,6.53237236 6.53324375,6.26086957 6.86615744,6.26086957 L32.7860164,6.26086957 C33.1189301,6.26086957 33.3913043,6.53237236 33.3913043,6.86422097 L33.3913043,17.2233674 C33.3914111,17.555216 33.1190369,17.8267188 32.7860164,17.8267188 Z M32.7860164,24.5253135 L6.86615744,24.5253135 C6.53324375,24.5253135 6.26086957,24.2538107 6.26086957,23.9219621 L6.26086957,22.0019657 C6.26086957,21.6701171 6.53324375,21.3986143 6.86615744,21.3986143 L32.7860164,21.3986143 C33.1189301,21.3986143 33.3913043,21.6701171 33.3913043,22.0019657 L33.3913043,23.9219621 C33.3914111,24.2538107 33.1190369,24.5253135 32.7860164,24.5253135 Z M32.7860164,31.0506401 L6.86615744,31.0506401 C6.53324375,31.0506401 6.26086957,30.7791373 6.26086957,30.4472887 L6.26086957,28.5272924 C6.26086957,28.1954438 6.53324375,27.923941 6.86615744,27.923941 L32.7860164,27.923941 C33.1189301,27.923941 33.3913043,28.1954438 33.3913043,28.5272924 L33.3913043,30.4472887 C33.3914111,30.7791373 33.1190369,31.0506401 32.7860164,31.0506401 Z M23.8381344,37.5652174 L6.86615744,37.5652174 C6.53324375,37.5652174 6.26086957,37.2937146 6.26086957,36.961866 L6.26086957,35.0418698 C6.26086957,34.7100211 6.53324375,34.4385183 6.86615744,34.4385183 L23.8381344,34.4385183 C24.1710481,34.4385183 24.4434222,34.7100211 24.4434221,35.0418698 L24.4434221,36.961866 C24.4434221,37.2937146 24.1710479,37.5652174 23.8381344,37.5652174 Z" id="Shape" fill="#FFFFFF"></path>
            </g>
        </g>
    </g>
</svg>