<?xml version="1.0" encoding="UTF-8"?>
<svg width="45px" height="47px" viewBox="0 0 45 47" version="1.1" xmlns="http://www.w3.org/2000/svg" xmlns:xlink="http://www.w3.org/1999/xlink">
    <!-- Generator: Sketch 50.2 (55047) - http://www.bohemiancoding.com/sketch -->
    <title>Group 27</title>
    <desc>Created with Sketch.</desc>
    <defs></defs>
    <g id="搜索卡片" stroke="none" stroke-width="1" fill="none" fill-rule="evenodd">
        <g id="综合首页-分类推荐1" transform="translate(-1213.000000, -246.000000)">
            <g id="Group-27" transform="translate(1213.000000, 246.000000)">
                <g id="其他" transform="translate(0.500000, 3.742188)" fill="#539BFB" fill-rule="nonzero">
                    <path d="M17.9350587,42.5733533 L1.37972603,42.5733533 C0.617724385,42.5733533 3.49337947e-15,41.9556289 3.40006119e-15,41.1936273 L3.40006119e-15,24.6293264 C-0.000183021038,24.2632808 0.145099753,23.9121648 0.403868416,23.6532667 C0.662637079,23.3943687 1.01368038,23.2489104 1.37972603,23.2489105 L17.9350587,23.2489105 C18.3011043,23.2489104 18.6521476,23.3943687 18.9109163,23.6532667 C19.169685,23.9121648 19.3149677,24.2632808 19.3147847,24.6293264 L19.3147847,41.1936273 C19.3147847,41.9556289 18.6970603,42.5733533 17.9350587,42.5733533 Z M17.9350587,19.7975258 L1.37972603,19.7975258 C1.01368038,19.7975258 0.662637079,19.6520676 0.403868416,19.3931695 C0.145099753,19.1342715 -0.000183021038,18.7831555 -1.53179953e-16,18.4171099 L-1.53179953e-16,1.8534989 C-0.000183021038,1.4874533 0.145099753,1.13633733 0.403868416,0.877439283 C0.662637079,0.618541237 1.01368038,0.473082969 1.37972603,0.473083014 L17.9350587,0.473083014 C18.3011043,0.473082969 18.6521476,0.618541237 18.9109163,0.877439283 C19.169685,1.13633733 19.3149677,1.4874533 19.3147847,1.8534989 L19.3147847,18.4171099 C19.3149677,18.7831555 19.169685,19.1342715 18.9109163,19.3931695 C18.6521476,19.6520676 18.3011043,19.7975258 17.9350587,19.7975258 Z M24.8336888,23.2489105 L42.7687475,23.2489105 C43.1347932,23.2489104 43.4858365,23.3943687 43.7446051,23.6532667 C44.0033738,23.9121648 44.1486566,24.2632808 44.1484735,24.6293264 L44.1484735,41.1936273 C44.1484735,41.9556289 43.5307492,42.5733533 42.7687475,42.5733533 L24.8336888,42.5733533 C24.0716872,42.5733533 23.4539628,41.9556289 23.4539628,41.1936273 L23.4539628,24.6293264 C23.4537798,24.2632808 23.5990626,23.9121648 23.8578312,23.6532667 C24.1165999,23.3943687 24.4676432,23.2489104 24.8336888,23.2489105 Z" id="Shape"></path>
                </g>
                <path d="M44.3234115,13.2432606 L33.9754663,23.5960349 C33.4366835,24.134655 32.5633165,24.134655 32.0245337,23.5960349 L21.6765885,13.2432606 C21.4177187,12.9844958 21.2722784,12.6334723 21.2722784,12.2674494 C21.2722784,11.9014265 21.4177187,11.5504031 21.6765885,11.2916382 L32.0245337,0.938863899 C32.2830908,0.679866762 32.6340337,0.534326639 33,0.534326639 C33.3659663,0.534326639 33.7169092,0.679866762 33.9754663,0.938863899 L44.3234115,11.2916382 C44.5822813,11.5504031 44.7277216,11.9014265 44.7277216,12.2674494 C44.7277216,12.6334723 44.5822813,12.9844958 44.3234115,13.2432606 Z" id="Path-Copy" fill="#FFD664"></path>
            </g>
        </g>
    </g>
</svg>