<?xml version="1.0" encoding="UTF-8"?>
<svg width="47px" height="48px" viewBox="0 0 47 48" version="1.1" xmlns="http://www.w3.org/2000/svg" xmlns:xlink="http://www.w3.org/1999/xlink">
    <!-- Generator: Sketch 50.2 (55047) - http://www.bohemiancoding.com/sketch -->
    <title>Group-24</title>
    <desc>Created with Sketch.</desc>
    <defs></defs>
    <g id="搜索卡片" stroke="none" stroke-width="1" fill="none" fill-rule="evenodd">
        <g id="综合首页-分类推荐1" transform="translate(-1330.000000, -249.000000)" fill-rule="nonzero">
            <g id="zxg(1)" transform="translate(1323.000000, 246.000000)">
                <g id="Group-24" transform="translate(7.000000, 3.000000)">
                    <path d="M17.9928858,39.8297872 L28.9858376,39.8297872 C29.3726687,39.8297872 29.7262991,40.0483429 29.8992952,40.394335 L32.963125,46.5219946 C33.2153694,47.0264833 33.0108849,47.6399366 32.5063962,47.892181 C32.3645864,47.9630859 32.2082156,48 32.0496674,48 L14.929056,48 C14.3650205,48 13.9077794,47.5427588 13.9077794,46.9787234 C13.9077794,46.8201752 13.9446935,46.6638044 14.0155984,46.5219946 L17.0794282,40.394335 C17.2524243,40.0483429 17.6060547,39.8297872 17.9928858,39.8297872 Z" id="Rectangle-18" fill="#5098FE"></path>
                    <rect id="Rectangle-17" fill="#83BBFB" x="22.4680851" y="27.5744681" width="2.04255319" height="15.3191489" rx="1"></rect>
                    <path d="M3.42228132,2.04255319 L42.7785165,2.04255319 C44.6685903,2.04255319 46.2007979,3.87151762 46.2007979,6.12765957 L46.2007979,32.6808511 C46.2007979,34.936993 44.6685903,36.7659574 42.7785165,36.7659574 L3.42228132,36.7659574 C1.53220754,36.7659574 2.31467281e-16,34.936993 0,32.6808511 L0,6.12765957 C-2.31467281e-16,3.87151762 1.53220754,2.04255319 3.42228132,2.04255319 Z" id="Rectangle-12" fill="#5098FE"></path>
                    <rect id="Rectangle-16" fill="#83BBFB" x="15.3191489" y="0" width="16.3404255" height="4.08510638" rx="2"></rect>
                    <path d="M11.2340426,26.5531915 L12.2553191,26.5531915 C12.8193546,26.5531915 13.2765957,27.0104326 13.2765957,27.5744681 L13.2765957,30.6382979 C13.2765957,31.2023333 12.8193546,31.6595745 12.2553191,31.6595745 L11.2340426,31.6595745 C10.6700071,31.6595745 10.212766,31.2023333 10.212766,30.6382979 L10.212766,27.5744681 C10.212766,27.0104326 10.6700071,26.5531915 11.2340426,26.5531915 Z M18.893617,22.4680851 C19.7396702,22.4680851 20.4255319,23.1539468 20.4255319,24 L20.4255319,30.1276596 C20.4255319,30.9737128 19.7396702,31.6595745 18.893617,31.6595745 C18.0475638,31.6595745 17.3617021,30.9737128 17.3617021,30.1276596 L17.3617021,24 C17.3617021,23.1539468 18.0475638,22.4680851 18.893617,22.4680851 Z M26.0425532,23.4893617 C26.8886064,23.4893617 27.5744681,24.1752234 27.5744681,25.0212766 L27.5744681,30.1276596 C27.5744681,30.9737128 26.8886064,31.6595745 26.0425532,31.6595745 C25.1965,31.6595745 24.5106383,30.9737128 24.5106383,30.1276596 L24.5106383,25.0212766 C24.5106383,24.1752234 25.1965,23.4893617 26.0425532,23.4893617 Z" id="Combined-Shape" fill="#FFFFFF"></path>
                    <path d="M33.1914894,19.4042553 C34.0375426,19.4042553 34.7234043,20.090117 34.7234043,20.9361702 L34.7234043,30.1276596 C34.7234043,30.9737128 34.0375426,31.6595745 33.1914894,31.6595745 C32.3454362,31.6595745 31.6595745,30.9737128 31.6595745,30.1276596 L31.6595745,20.9361702 C31.6595745,20.090117 32.3454362,19.4042553 33.1914894,19.4042553 Z" id="Rectangle-19-Copy-3" fill="#FFD75A"></path>
                    <polygon id="Combined-Shape" fill="#FFFFFF" points="32.8891833 10.4103078 31.6595745 9.19148936 34.7234043 9.19148936 34.7234043 12.2284327 33.6113348 11.1261222 33.4585913 11.2775254 25.9549415 18.7153274 25.2327899 19.4311418 24.8717141 19.0732346 21.1476835 15.381884 20.8189435 15.7077392 11.2959934 25.1740077 10.9349176 25.5319149 10.212766 24.8161005 10.5738418 24.4581933 20.0967919 14.9919248 20.4578677 14.6340176 21.1476835 13.9502552 21.5087594 14.3081624 25.2327899 17.999513 32.7364397 10.561711"></polygon>
                </g>
            </g>
        </g>
    </g>
</svg>