<?xml version="1.0" standalone="no"?><!DOCTYPE svg PUBLIC "-//W3C//DTD SVG 1.1//EN" "http://www.w3.org/Graphics/SVG/1.1/DTD/svg11.dtd"><svg t="1533625591650" class="icon" style="" viewBox="0 0 1024 1024" version="1.1" xmlns="http://www.w3.org/2000/svg" p-id="806" xmlns:xlink="http://www.w3.org/1999/xlink" width="20" height="20"><defs><style type="text/css"></style></defs><path d="M924.845211 546.435277l-825.859267 0c-19.015076 0-34.444487-15.429411-34.444487-34.435277 0-19.015076 15.429411-34.44551 34.444487-34.44551l825.859267 0c19.042705 0 34.44551 15.430434 34.44551 34.44551C959.285604 531.005866 943.888939 546.435277 924.845211 546.435277L924.845211 546.435277 924.845211 546.435277zM856.400353 959.723068 649.761062 959.723068c-19.041682 0-34.43937-15.402805-34.43937-34.444487 0-19.044752 15.397688-34.44244 34.43937-34.44244l206.639291 0c19.010983 0 34.441417-15.429411 34.441417-34.434254L890.841769 684.197874c0-19.042705 15.391549-34.440393 34.44551-34.440393 19.042705 0 34.43016 15.397688 34.43016 34.440393l0 172.20299C959.721533 913.360134 913.363715 959.723068 856.400353 959.723068L856.400353 959.723068 856.400353 959.723068zM339.801615 959.723068 167.597601 959.723068c-56.957223 0-103.317087-46.363957-103.317087-103.322204L64.280514 684.197874c0-19.042705 15.431457-34.440393 34.4363-34.440393 19.015076 0 34.444487 15.397688 34.444487 34.440393l0 172.20299c0 19.004843 15.461133 34.434254 34.4363 34.434254l172.198897 0c19.015076 0 34.44551 15.397688 34.44551 34.44244C374.242008 944.321286 358.811574 959.723068 339.801615 959.723068L339.801615 959.723068 339.801615 959.723068zM98.721931 374.232287c-19.009959 0-34.4363-15.425318-34.4363-34.435277L64.28563 167.598112c0-56.969503 46.354747-103.322204 103.31197-103.322204l172.198897 0c19.015076 0 34.44551 15.430434 34.44551 34.43937 0 19.005866-15.430434 34.435277-34.44551 34.435277L167.597601 133.150556c-18.975167 0-34.4363 15.464203-34.4363 34.446533l0 172.197874C133.161301 358.806969 117.73189 374.232287 98.721931 374.232287L98.721931 374.232287 98.721931 374.232287zM925.287279 374.232287c-19.053961 0-34.44551-15.425318-34.44551-34.435277L890.841769 167.598112c0-18.978237-15.425318-34.446533-34.441417-34.446533L649.761062 133.151579c-19.041682 0-34.43937-15.429411-34.43937-34.435277 0-19.008936 15.397688-34.43937 34.43937-34.43937l206.639291 0c56.963363 0 103.31811 46.352701 103.31811 103.322204l0 172.197874C959.721533 358.806969 944.329984 374.232287 925.287279 374.232287L925.287279 374.232287 925.287279 374.232287zM925.287279 374.232287" fill="#4C4C4C" p-id="807"></path></svg>