<?xml version="1.0" encoding="UTF-8"?>
<svg width="146px" height="17px" viewBox="0 0 146 17" version="1.1" xmlns="http://www.w3.org/2000/svg" xmlns:xlink="http://www.w3.org/1999/xlink">
    <!-- Generator: Sketch 50.2 (55047) - http://www.bohemiancoding.com/sketch -->
    <title>Group 5</title>
    <desc>Created with Sketch.</desc>
    <defs></defs>
    <g id="Symbols" stroke="none" stroke-width="1" fill="none" fill-rule="evenodd">
        <g id="search/head" transform="translate(-12.000000, -25.000000)">
            <g id="Group-5" transform="translate(12.000000, 21.000000)">
                <g id="Group-4" transform="translate(0.000000, 4.000000)">
                    <g id="Group-3" transform="translate(22.151946, 0.000000)" fill="#FFFFFF">
                        <g id="Group-2">
                            <g id="Group" fill-rule="nonzero">
                                <path d="M1.89716169,15.6199623 C1.50656957,15.6199623 1.22757521,15.6199623 1.00437972,15.6199623 C0.781184223,15.6199623 0.446390985,15.6199623 0.111597746,15.6199623 L0.111597746,0.511198765 L1.89716169,0.511198765 L9.93219941,12.2687704 L10.099596,12.2687704 L10.099596,0.511198765 L11.9409588,0.511198765 L11.9409588,15.6199623 L10.1553949,15.6199623 L2.12035718,3.91919053 L1.95296056,3.91919053 L1.95296056,15.6199623 L1.89716169,15.6199623 Z" id="Shape"></path>
                                <path d="M25.8906771,15.6199623 C25.6116827,14.7679643 25.3326884,14.0295661 25.1652918,13.4615675 C24.9420963,12.8935689 24.7189008,12.1551706 24.4399064,11.3031727 L18.5252259,11.3031727 L17.0186563,15.6199623 L15.0656957,15.6199623 L20.5339853,0.511198765 L22.3753481,0.511198765 L27.8436377,15.6199623 L25.8906771,15.6199623 Z M21.3709684,2.95359287 C21.0361752,3.86239067 20.7571808,4.65758875 20.5339853,5.3391871 C20.3107898,6.02078546 20.0875943,6.70238381 19.8643988,7.3271823 C19.6412033,8.00878066 19.362209,8.80397873 19.0274157,9.71277654 L23.8261188,9.71277654 L21.4825661,2.95359287 L21.3709684,2.95359287 Z" id="Shape"></path>
                                <path d="M40.007792,13.9159664 C40.007792,14.2567656 40.007792,14.5407649 40.007792,14.7679643 C40.007792,14.9951638 40.007792,15.2791631 40.007792,15.6199623 L31.0241734,15.6199623 L31.0241734,0.511198765 L32.8655363,0.511198765 L32.8655363,13.9159664 L40.007792,13.9159664 Z" id="Shape"></path>
                                <path d="M47.7638354,15.6199623 C47.3732433,15.6199623 47.0942489,15.6199623 46.8152545,15.6199623 C46.5362602,15.6199623 46.2572658,15.6199623 45.8666737,15.6199623 L45.8666737,9.08797805 L40.6215796,0.511198765 L42.7419368,0.511198765 L46.7594556,7.21358258 L46.9268523,7.21358258 L50.9443711,0.511198765 L53.0647283,0.511198765 L47.8196342,9.08797805 L47.8196342,15.6199623 L47.7638354,15.6199623 Z" id="Shape"></path>
                                <path d="M54.96189,11.6439719 C55.3524821,11.6439719 55.6314765,11.6439719 55.9104708,11.6439719 C56.1336663,11.6439719 56.4684596,11.6439719 56.8590517,11.6439719 C56.9706494,12.43917 57.3612415,13.0639684 58.0866269,13.5183673 C58.7562134,13.9727662 59.6489953,14.1999657 60.7091739,14.1999657 C61.7135536,14.1999657 62.5505367,13.9727662 63.1643243,13.4615675 C63.8339108,12.9503687 64.1687041,12.3255702 64.1687041,11.587172 C64.1687041,10.9623735 63.9455086,10.3943749 63.4433187,9.99677585 C62.9411288,9.59917681 62.2157435,9.20157777 61.2113638,8.97437832 L59.3142021,8.46317956 C57.9750291,8.12238038 56.9706494,7.61118162 56.4126607,6.98638312 C55.854672,6.36158463 55.5198787,5.50958669 55.5198787,4.4303893 C55.5198787,3.12399245 56.0220686,2.10159492 56.9706494,1.30639684 C57.9192303,0.511198765 59.2026043,0.113599726 60.7649728,0.113599726 C62.2157435,0.113599726 63.3875198,0.511198765 64.3361007,1.30639684 C65.2846815,2.10159492 65.8426702,3.06719259 65.8984691,4.31678957 L64.0571063,4.31678957 C63.9455086,3.52159149 63.5549165,2.95359287 62.9969277,2.49919396 C62.3831401,2.04479506 61.6577548,1.81759561 60.7091739,1.81759561 C59.7047942,1.81759561 58.92361,2.04479506 58.3098224,2.49919396 C57.6960348,2.95359287 57.4170404,3.57839136 57.4170404,4.31678957 C57.4170404,4.8847882 57.6402359,5.39598697 58.0866269,5.73678614 C58.5330179,6.07758532 59.2584032,6.4183845 60.2627829,6.70238381 L61.8251514,7.09998285 C63.3875198,7.49758189 64.4476984,8.00878066 65.1172849,8.69037901 C65.7868714,9.37197736 66.1216646,10.2239753 66.1216646,11.3599726 C66.1216646,12.7231693 65.6194748,13.8591665 64.615095,14.6543646 C63.6107153,15.4495627 62.2715424,15.9039616 60.5975762,15.9039616 C59.0352077,15.9039616 57.7518336,15.5063625 56.7474539,14.7111645 C55.5756776,13.9727662 55.0176889,12.9503687 54.96189,11.6439719 Z" id="Shape"></path>
                                <path d="M75.3284787,15.6199623 C74.9378866,15.6199623 74.6588922,15.6199623 74.3798978,15.6199623 C74.1567023,15.6199623 73.8219091,15.6199623 73.431317,15.6199623 L73.431317,2.21519465 L68.6326139,2.21519465 L68.6326139,0.511198765 L80.015584,0.511198765 L80.015584,2.21519465 L75.3284787,2.21519465 L75.3284787,15.6199623 Z" id="Shape"></path>
                            </g>
                            <rect id="Rectangle-3" x="82.5823322" y="13.6319671" width="2.23195492" height="2.27199451"></rect>
                        </g>
                    </g>
                    <g id="logo-copy-2">
                        <g id="Group">
                            <polygon id="Rectangle-Copy" fill="#016DFF" opacity="0.817651721" points="11.3216021 0 7.38398216 0 14.2383362 15.9039616 18.1759561 15.9039616"></polygon>
                            <polygon id="Rectangle" fill="#01ACFF" opacity="0.816915761" points="7.26175061 0 11.3557576 0 4.65779058 15.9039616 0.563783628 15.9039616"></polygon>
                            <polygon id="Rectangle-2" fill="#1472FB" opacity="0.651551178" points="7.62035445 11.9279712 16.4719602 11.9279712 18.1759561 15.9039616 5.96398559 15.9039616"></polygon>
                        </g>
                    </g>
                </g>
                <text id="研报" font-family="PingFangSC-Medium, PingFang SC" font-size="18" font-weight="400" fill="#FFFFFF">
                    <tspan x="110" y="19">研报</tspan>
                </text>
            </g>
        </g>
    </g>
</svg>