<?xml version="1.0" encoding="UTF-8"?>
<svg width="48px" height="48px" viewBox="0 0 48 48" version="1.1" xmlns="http://www.w3.org/2000/svg" xmlns:xlink="http://www.w3.org/1999/xlink">
    <!-- Generator: Sketch 50.2 (55047) - http://www.bohemiancoding.com/sketch -->
    <title>Group 15</title>
    <desc>Created with Sketch.</desc>
    <defs></defs>
    <g id="首页" stroke="none" stroke-width="1" fill="none" fill-rule="evenodd">
        <g id="研报首页" transform="translate(-163.000000, -550.000000)">
            <g id="Group-6-Copy" transform="translate(129.000000, 377.000000)">
                <g id="Group-15" transform="translate(34.000000, 173.000000)">
                    <circle id="Oval-2-Copy" fill="#0082FF" opacity="0.114676339" cx="24" cy="24" r="24"></circle>
                    <path d="M21.5517435,16 L16.6377466,16 C15.7343742,16 15.000018,16.7346987 15.000018,17.6377286 L15.000018,22.5511126 C15.000018,23.4541425 15.6849509,24.4702044 16.5882332,24.4702044 L21.8823678,24.4702044 C22.7852896,24.4702044 23.4704928,23.2561248 23.4704928,22.3525001 L23.4704928,17.5882152 C23.4704928,16.6852032 22.4547554,16 21.5517435,16 Z M31.3623615,16 L26.448635,16 C25.5453528,16 24.5295432,16.6852032 24.5295432,17.5882152 L24.5295432,22.3527705 C24.5295432,23.2563952 25.214386,24.4704748 26.1177584,24.4704748 L31.4118029,24.4704748 C32.3151572,24.4704748 33,23.4544129 33,22.551383 L33,17.6377286 C33.000018,16.7346987 32.2653194,16 31.3623615,16 Z M21.8823678,25.5297956 L16.5882152,25.5297956 C15.6849329,25.5297956 15,26.5455871 15,27.448617 L15,32.3623435 C15,33.2652833 15.7343742,33.999982 16.6377286,33.999982 L21.551365,33.999982 C22.4543949,33.999982 23.4701864,33.3151392 23.4701864,32.4117668 L23.4701864,27.1177404 C23.4704928,26.2141156 22.7852896,25.5297956 21.8823678,25.5297956 Z M31.4118029,25.5297956 L26.1177584,25.5297956 C25.214404,25.5297956 24.5295432,26.2141156 24.5295432,27.1177404 L24.5295432,32.4117848 C24.5295432,33.3151392 25.5456051,34 26.448635,34 L31.3623615,34 C32.2653013,34 33,33.2653013 33,32.3623615 L33,27.448617 C33.000018,26.5455871 32.3151753,25.5297956 31.4118029,25.5297956 Z" id="Shape" fill="#338CDF" fill-rule="nonzero"></path>
                </g>
            </g>
        </g>
    </g>
</svg>