<?xml version="1.0" encoding="UTF-8"?>
<svg width="47px" height="48px" viewBox="0 0 47 48" version="1.1" xmlns="http://www.w3.org/2000/svg" xmlns:xlink="http://www.w3.org/1999/xlink">
    <!-- Generator: Sketch 50.2 (55047) - http://www.bohemiancoding.com/sketch -->
    <title>Group 13</title>
    <desc>Created with Sketch.</desc>
    <defs></defs>
    <g id="首页" stroke="none" stroke-width="1" fill="none" fill-rule="evenodd">
        <g id="研报首页" transform="translate(-162.000000, -412.000000)">
            <g id="Group-6-Copy" transform="translate(129.000000, 377.000000)">
                <g id="Group-13" transform="translate(33.000000, 35.000000)">
                    <ellipse id="Oval-2" fill="#0082FF" opacity="0.114676339" cx="23.5" cy="24" rx="23.5" ry="24"></ellipse>
                    <g id="包" transform="translate(14.000000, 15.000000)" fill="#338CDF" fill-rule="nonzero">
                        <path d="M0,4.08322148 L5.01736635,4.08322148 L5.01736635,2.87516779 C5.01736635,2.08993289 5.32316521,1.37718121 5.81017819,0.845637584 C6.29719118,0.326174497 6.9654183,0 7.70160072,0 L11.7675929,0 C12.5037753,0 13.1833283,0.326174497 13.6703413,0.845637584 C14.1573543,1.36510067 14.4631531,2.07785235 14.4631531,2.87516779 L14.4631531,4.08322148 L19.4805195,4.08322148 L19.4805195,18 L0,18 L0,4.08322148 Z M3.34113561,7.46577181 L3.34113561,8.40805369 L16.2526427,8.40805369 L16.2526427,7.46577181 L3.34113561,7.46577181 Z M3.34113561,13.9530201 L3.34113561,14.895302 L16.2526427,14.895302 L16.2526427,13.9530201 L3.34113561,13.9530201 Z M3.34113561,10.6067114 L3.34113561,11.5489933 L16.2526427,11.5489933 L16.2526427,10.6067114 L3.34113561,10.6067114 Z M6.68227122,4.08322148 L12.7982483,4.08322148 L12.7982483,2.87516779 C12.7982483,2.57315436 12.6849894,2.30738255 12.4924494,2.10201342 C12.3112353,1.90872483 12.05074,1.77583893 11.7675929,1.77583893 L7.70160072,1.77583893 C7.41845364,1.77583893 7.1692842,1.8966443 6.97674419,2.08993289 C6.79553005,2.30738255 6.68227122,2.57315436 6.68227122,2.87516779 L6.68227122,4.08322148 Z" id="Shape"></path>
                    </g>
                </g>
            </g>
        </g>
    </g>
</svg>