<?xml version="1.0" encoding="UTF-8"?>
<svg width="14px" height="14px" viewBox="0 0 14 14" version="1.1" xmlns="http://www.w3.org/2000/svg" xmlns:xlink="http://www.w3.org/1999/xlink">
    <!-- Generator: Sketch 51.2 (57519) - http://www.bohemiancoding.com/sketch -->
    <title>Shape</title>
    <desc>Created with Sketch.</desc>
    <defs></defs>
    <g id="搜索卡片" stroke="none" stroke-width="1" fill="none" fill-rule="evenodd">
        <g id="1-综合搜索-上市公司" transform="translate(-586.000000, -624.000000)" fill="#407CD5" fill-rule="nonzero">
            <path d="M593.003268,624 C589.135474,624 586,627.135442 586,631.003236 C586,634.871029 589.135474,638.006488 593.003268,638.006488 C596.871061,638.006488 600.00652,634.871013 600.00652,631.003236 C600.00652,627.135458 596.871061,624 593.003268,624 Z M596.327702,631.305335 C596.317101,631.328471 596.304693,631.346219 596.297402,631.356388 C596.293997,631.36248 596.290623,631.368908 596.287201,631.375383 C596.267551,631.412606 596.241472,631.462013 596.196447,631.509133 L596.193489,631.512139 C596.190691,631.514985 596.188005,631.517543 596.185478,631.51991 C596.176492,631.532781 596.166595,631.544677 596.155962,631.555325 L592.059763,635.503337 C591.913255,635.644249 591.720937,635.721845 591.518147,635.721845 C591.30378,635.721845 591.104123,635.636926 590.956,635.482791 C590.657786,635.173129 590.666932,634.678184 590.97645,634.379571 L594.503051,630.980547 L590.963419,627.632065 C590.650991,627.33625 590.637224,626.841274 590.932688,626.52867 C591.079804,626.373543 591.286608,626.284627 591.500111,626.284627 C591.700295,626.284627 591.890662,626.360352 592.036131,626.497858 L596.166883,630.404873 C596.410446,630.634894 596.47509,630.996776 596.327702,631.305335 Z" id="Shape"></path>
        </g>
    </g>
</svg>